<svg width="98" height="19" fill="none" xmlns="http://www.w3.org/2000/svg"><path d="M.401998 5.23622c-.098736-.15673-.19042-.37045-.275051-.64117C.0423156 4.32433 0 4.03937 0 3.74016c0-.55568.119894-.95463.359683-1.19685.253893-.24222.578313-.36333.973257-.36333h9.22476c.0988.15673.1905.37045.2751.64117.0846.27071.1269.55568.1269.85489 0 .55568-.1269.95463-.3808 1.19685-.2398.24222-.5572.36333-.9521.36333H7.27829v9.87398c-.15516.0428-.402.0855-.74053.1283-.32442.0427-.64884.0641-.97326.0641-.32442 0-.61357-.0285-.86747-.0855-.23979-.0427-.44431-.1282-.61357-.2565-.16927-.1282-.29621-.3063-.38084-.5343-.08463-.228-.12695-.5272-.12695-.8976V5.23622H.401998zM15.2257 15.1744c-.1411.0427-.3667.0854-.6771.1282-.2962.0427-.6065.0641-.9309.0641-.3103 0-.5924-.0214-.8463-.0641-.2398-.0428-.4443-.1282-.6136-.2565-.1693-.1282-.3033-.2992-.402-.5129-.0846-.228-.1269-.5201-.1269-.8763V7.24522c0-.32771.0564-.60555.1692-.83352.127-.24222.3033-.45594.529-.64117s.5007-.34908.8251-.49157c.3385-.15673.6982-.29208 1.0791-.40607.3808-.11398.7758-.19947 1.1848-.25647.4091-.07124.8181-.10686 1.2272-.10686.677 0 1.213.13536 1.608.40608.3949.25646.5924.68391.5924 1.28233 0 .19948-.0282.39896-.0847.59843-.0564.18523-.1269.35621-.2115.51294-.2962 0-.5995.01424-.9098.04274s-.6136.07124-.9098.12823c-.2962.057-.5783.12111-.8463.19236-.2539.05699-.4725.12823-.6559.21372v7.28801zM20.2429 1.92351c0-.54143.1763-.997376.5289-1.36783C21.1386.185227 21.6182 0 22.2106 0s1.0649.185227 1.4175.55568c.3668.370454.5502.8264.5502 1.36783 0 .54143-.1834.99738-.5502 1.36783-.3526.37045-.8251.55568-1.4175.55568s-1.072-.18523-1.4388-.55568c-.3526-.37045-.5289-.8264-.5289-1.36783zM24.009 15.1744c-.1552.0285-.3879.0641-.6982.1068-.2962.057-.5995.0855-.9098.0855s-.5924-.0214-.8463-.0641c-.2398-.0428-.4443-.1282-.6136-.2565-.1693-.1282-.3033-.2992-.402-.5129-.0846-.228-.1269-.5201-.1269-.8763V4.95838c.1551-.0285.3808-.06412.677-.10686.3103-.05699.6206-.08549.931-.08549.3103 0 .5853.02137.8251.06412.2539.04274.4655.12823.6347.25646.1693.12824.2963.30634.3809.53431.0987.21373.1481.49869.1481.8549v8.69858zM31.017 4.48819c.8463 0 1.6292.11398 2.3485.34196.7335.21372 1.3612.54855 1.8831 1.0045.5219.45594.9309 1.03299 1.2271 1.73115.2962.68392.4443 1.50319.4443 2.4578 0 .9119-.1269 1.7098-.3808 2.3937s-.6136 1.261-1.079 1.7312c-.4655.4559-1.0297.7979-1.6927 1.0259-.6488.2279-1.3752.3419-2.1792.3419-.6065 0-1.1708-.0926-1.6926-.2778v3.5478c-.1411.0427-.3668.0855-.6771.1282-.3103.057-.6277.0855-.9521.0855-.3103 0-.5924-.0214-.8463-.0641-.2398-.0428-.4443-.1283-.6136-.2565-.1692-.1282-.2962-.3063-.3808-.5343-.0847-.2137-.127-.4987-.127-.8549V7.0315c0-.38471.0776-.69817.2328-.94039.1692-.24222.3949-.46306.677-.66254.4373-.28496.9803-.51293 1.6292-.68391.6488-.17098 1.3752-.25647 2.1792-.25647zm.0423 8.16421c1.4529 0 2.1793-.8762 2.1793-2.6288 0-.91186-.1834-1.58865-.5501-2.03035-.3526-.44169-.8675-.66254-1.5445-.66254-.268 0-.5078.03562-.7194.10686-.2116.05699-.3949.12823-.5501.21372v4.70191c.1693.0855.3526.1567.5501.2137.1975.057.409.0855.6347.0855zM50.4179 15.1102c-.1552.0428-.402.0855-.7405.1283-.3244.0427-.6489.0641-.9733.0641s-.6136-.0285-.8675-.0855c-.2397-.0427-.4443-.1282-.6135-.2565-.1693-.1282-.2962-.3063-.3809-.5343-.0846-.228-.1269-.5272-.1269-.8976v-3.3341H42.653v4.9156c-.1552.0428-.402.0855-.7405.1283-.3245.0427-.6489.0641-.9733.0641s-.6136-.0285-.8675-.0855c-.2398-.0427-.4443-.1282-.6135-.2565-.1693-.1282-.2963-.3063-.3809-.5343-.0846-.228-.1269-.5272-.1269-.8976V2.24409c.1551-.02849.402-.06411.7405-.10686.3385-.05699.6629-.08549.9733-.08549.3244 0 .6065.0285.8463.08549.2539.04275.4654.12824.6347.25647.1693.12823.2962.30634.3808.53431.0847.22797.127.52718.127.89764v3.41957h4.0623V2.24409c.1551-.02849.402-.06411.7405-.10686.3385-.05699.663-.08549.9733-.08549.3244 0 .6065.0285.8463.08549.2539.04275.4654.12824.6347.25647.1693.12823.2962.30634.3809.53431.0846.22797.1269.52718.1269.89764V15.1102zM63.5331 10.0022c0 .8834-.134 1.6742-.402 2.3724-.268.6839-.6488 1.2609-1.1425 1.7311-.4796.4702-1.0579.8264-1.735 1.0687-.677.2422-1.4316.3633-2.2639.3633-.8322 0-1.5868-.1283-2.2638-.3847-.6771-.2565-1.2624-.6198-1.7561-1.09-.4796-.4844-.8534-1.0686-1.1214-1.7525-.268-.684-.402-1.4534-.402-2.3083 0-.8406.134-1.60287.402-2.28679.268-.68391.6418-1.26097 1.1214-1.73116.4937-.48444 1.079-.85489 1.7561-1.11136.677-.25647 1.4316-.3847 2.2638-.3847.8323 0 1.5869.13536 2.2639.40607.6771.25647 1.2554.62692 1.735 1.11136.4937.4702.8745 1.04725 1.1425 1.73116.268.68392.402 1.43907.402 2.26542zm-7.4052 0c0 .8692.1622 1.5389.4866 2.009.3385.456.804.684 1.3964.684s1.0438-.2351 1.3541-.7053c.3244-.4702.4866-1.1328.4866-1.9877 0-.85484-.1622-1.51026-.4866-1.9662-.3244-.4702-.7828-.70529-1.3753-.70529-.5924 0-1.0508.23509-1.3752.70529-.3244.45594-.4866 1.11136-.4866 1.9662zM65.2879 4.95838c.141-.04274.3597-.08549.6559-.12823.3103-.04275.6276-.06412.9521-.06412.3103 0 .5853.02137.8251.06412.2539.04274.4655.12823.6348.25646.1692.12824.2962.30634.3808.53431.0987.21373.1481.49869.1481.8549v4.59508c0 .5841.1411 1.0045.4232 1.2609.2821.2423.6911.3634 1.2271.3634.3244 0 .5854-.0285.7828-.0855.2116-.057.3738-.114.4867-.171V4.95838c.141-.04274.3597-.08549.6559-.12823.3103-.04275.6277-.06412.9521-.06412.3103 0 .5853.02137.8251.06412.2539.04274.4655.12823.6348.25646.1692.12824.2962.30634.3808.53431.0987.21373.1481.49869.1481.8549V12.973c0 .7124-.2962 1.2467-.8886 1.6029-.4937.3135-1.0861.5486-1.7773.7053-.677.171-1.4176.2565-2.2215.2565-.7617 0-1.467-.0855-2.1158-.2565-.6348-.171-1.1849-.4346-1.6503-.7908-.4655-.3562-.8252-.8121-1.0791-1.3678-.2539-.5699-.3808-1.2538-.3808-2.0517V4.95838zM86.2771 12.0967c0 1.0829-.402 1.9307-1.206 2.5433-.804.6127-1.9889.9191-3.5545.9191-.5925 0-1.1425-.0428-1.6503-.1283-.5078-.0855-.9451-.2137-1.3118-.3847-.3526-.1852-.6348-.4132-.8463-.6839-.1975-.2707-.2962-.5913-.2962-.9618 0-.3419.0705-.6269.2115-.8548.1411-.2423.3104-.4417.5078-.5985.4091.228.8745.4346 1.3964.6198.536.171 1.1496.2565 1.8408.2565.4372 0 .7687-.0641.9944-.1924.2398-.1282.3597-.2992.3597-.5129 0-.1995-.0847-.3562-.2539-.4702-.1693-.114-.4514-.2066-.8463-.2778l-.6348-.1283c-1.2271-.2422-2.144-.6198-2.7505-1.1327-.5924-.52717-.8886-1.2752-.8886-2.24408 0-.52719.1128-1.0045.3385-1.43195.2257-.42745.5431-.78365.9521-1.06862.4091-.28496.8957-.50581 1.4599-.66254.5783-.15673 1.213-.23509 1.9042-.23509.5219 0 1.0085.04274 1.4599.12823.4655.07124.8675.18523 1.206.34196.3385.15673.6065.36333.804.6198.1975.24222.2962.5343.2962.87626 0 .32771-.0635.61267-.1904.85489-.1129.22798-.261.42033-.4443.57706-.1129-.07124-.2821-.14249-.5078-.21373-.2257-.08549-.4725-.15673-.7405-.21372-.2681-.07124-.5431-.12823-.8252-.17098-.268-.04274-.5149-.06412-.7405-.06412-.4655 0-.8252.057-1.0791.17098-.2539.09974-.3808.2636-.3808.49157 0 .15673.0705.28496.2116.3847.141.09974.409.19235.804.27784l.6559.14961c1.3541.31346 2.3132.74803 2.8774 1.30371.5783.54142.8675 1.24672.8675 2.11582zM93.5569 15.5377c-.8323 0-1.608-.114-2.3274-.342-.7053-.2422-1.3259-.5984-1.8619-1.0686-.5219-.4702-.938-1.0615-1.2483-1.7739-.2962-.7124-.4443-1.5459-.4443-2.50056 0-.94038.1481-1.7454.4443-2.41507.3103-.68391.7123-1.23959 1.206-1.66704.4937-.4417 1.0579-.76228 1.6926-.96176.6347-.21372 1.2836-.32058 1.9465-.32058.7476 0 1.4247.11398 2.0312.34196.6206.22797 1.1496.54143 1.5868.94038.4514.39895.797.87626 1.0368 1.43194C97.873 7.75816 98 8.3637 98 9.01912c0 .48444-.134.8549-.402 1.11138-.268.2565-.6418.4203-1.1214.4915l-5.226.7908c.1552.4702.4726.8264.9522 1.0686.4795.228 1.0296.342 1.6503.342.5783 0 1.1213-.0712 1.6291-.2137.5219-.1568.9451-.3349 1.2695-.5343.2257.1424.4161.3419.5712.5984.1552.2565.2328.5272.2328.8121 0 .6412-.2962 1.1185-.8886 1.432-.4514.2422-.9592.4061-1.5234.4915-.5642.0855-1.0932.1283-1.5868.1283zm-.5925-8.39934c-.3385 0-.6347.05699-.8886.17098-.2398.11398-.4373.26359-.5924.44882-.1552.17097-.2751.37045-.3597.59842-.0705.21372-.1128.43457-.1269.66254l3.6179-.59842c-.0423-.28497-.1974-.56993-.4654-.8549-.268-.28496-.663-.42744-1.1849-.42744z" fill="#fff"/></svg>