<svg width="205" height="40" fill="none" xmlns="http://www.w3.org/2000/svg"><path d="M.840915 11.0236c-.206541-.3299-.398328-.7799-.575363-1.34981C.0885173 9.10386 0 8.50394 0 7.87402c0-1.16986.250799-2.00975.752398-2.51969.531102-.50994 1.209732-.7649 2.035902-.7649h19.2968c.2065.32995.3983.7799.5753 1.34983.1771.56993.2656 1.16985.2656 1.79977 0 1.16986-.2656 2.00975-.7967 2.51967-.5016.51-1.1654.7649-1.9916.7649H15.225V31.811c-.3246.09-.8409.18-1.5491.27-.6786.09-1.3572.135-2.0359.135-.6786 0-1.2835-.06-1.81457-.18-.5016-.09-.92943-.27-1.2835-.5399-.35407-.27-.61963-.645-.79666-1.1249-.17704-.4799-.26555-1.1099-.26555-1.8898V11.0236H.840915zM31.8497 31.946c-.2951.09-.7672.18-1.4163.27-.6196.09-1.2688.135-1.9474.135-.6491 0-1.2393-.045-1.7704-.135-.5016-.09-.9294-.27-1.2835-.54-.354-.2699-.6343-.6299-.8409-1.0798-.177-.48-.2655-1.0949-.2655-1.8448V15.2531c0-.6899.118-1.2748.354-1.7548.2656-.5099.6344-.9599 1.1065-1.3498.4721-.39 1.0475-.7349 1.7261-1.0349.7081-.3299 1.4605-.6149 2.2572-.8549.7967-.24 1.6228-.41993 2.4785-.53992.8556-.14998 1.7113-.22497 2.567-.22497 1.4163 0 2.5375.28497 3.3636.85489.8262.5399 1.2393 1.4398 1.2393 2.6997 0 .4199-.059.8399-.177 1.2598-.1181.39-.2656.7499-.4426 1.0799-.6197 0-1.254.03-1.9032.09-.6491.06-1.2835.1499-1.9031.2699-.6196.12-1.2097.255-1.7703.405-.5311.12-.9885.2699-1.372.4499V31.946zM42.3448 4.04949c0-1.13985.3689-2.09973 1.1065-2.87964C44.2185.389951 45.2216 0 46.4609 0c1.2392 0 2.2277.389951 2.9653 1.16985.7672.77991 1.1508 1.73979 1.1508 2.87964 0 1.13986-.3836 2.09974-1.1508 2.87964-.7376.77991-1.7261 1.16986-2.9653 1.16986-1.2393 0-2.2424-.38995-3.0096-1.16986-.7376-.7799-1.1065-1.73978-1.1065-2.87964zM50.2229 31.946c-.3246.06-.8114.135-1.4606.225-.6196.12-1.2539.18-1.9031.18-.6491 0-1.2392-.045-1.7703-.135-.5016-.09-.9295-.27-1.2835-.54-.3541-.2699-.6344-.6299-.8409-1.0798-.1771-.48-.2656-1.0949-.2656-1.8448V10.4387c.3246-.06.7967-.135 1.4163-.225.6491-.12 1.2982-.18 1.9474-.18.6491 0 1.2245.045 1.7261.135.5311.09.9736.27 1.3277.54.3541.2699.6196.6449.7967 1.1248.2065.45.3098 1.0499.3098 1.7998V31.946zM64.8825 9.44882c1.7704 0 3.408.23997 4.9127.71988 1.5344.45 2.8474 1.1549 3.9391 2.1148 1.0917.9598 1.9473 2.1747 2.567 3.6445.6196 1.4398.9294 3.1646.9294 5.1744 0 1.9197-.2655 3.5995-.7966 5.0393-.5312 1.4399-1.2835 2.6547-2.2572 3.6446-.9737.9599-2.154 1.6798-3.5407 2.1597-1.3573.4799-2.8769.7199-4.5587.7199-1.2687 0-2.449-.195-3.5407-.5849v7.4691c-.295.0899-.7671.1799-1.4163.2699-.6491.12-1.313.18-1.9916.18-.6491 0-1.2392-.045-1.7703-.135-.5016-.09-.9295-.2699-1.2835-.5399-.3541-.27-.6197-.6449-.7967-1.1249-.177-.4499-.2656-1.0498-.2656-1.7998V14.8031c0-.8098.1623-1.4698.4869-1.9797.3541-.5099.8262-.9749 1.4163-1.3948.9147-.6 2.0506-1.0799 3.4079-1.43985s2.8768-.53993 4.5586-.53993zm.0886 17.18788c3.039 0 4.5586-1.8448 4.5586-5.5343 0-1.9198-.3836-3.3446-1.1507-4.2745-.7377-.9299-1.8146-1.3948-3.2309-1.3948-.5606 0-1.0622.075-1.5048.2249-.4426.12-.8262.27-1.1507.45v9.8987c.354.18.7376.33 1.1507.45s.8557.18 1.3278.18zM105.466 31.811c-.325.09-.841.18-1.549.27-.679.09-1.357.135-2.036.135s-1.283-.06-1.815-.18c-.5011-.09-.929-.27-1.283-.5399-.3541-.27-.6197-.645-.7967-1.1249-.177-.4799-.2656-1.1099-.2656-1.8898v-7.0191h-8.4976V31.811c-.3246.09-.8409.18-1.5491.27-.6786.09-1.3572.135-2.0359.135-.6786 0-1.2835-.06-1.8146-.18-.5016-.09-.9294-.27-1.2835-.5399-.3541-.27-.6196-.645-.7966-1.1249-.1771-.4799-.2656-1.1099-.2656-1.8898V4.72441c.3246-.05999.8409-.13498 1.5491-.22497.7081-.11999 1.3867-.17998 2.0359-.17998.6786 0 1.2687.05999 1.7703.17998.5311.08999.9737.26996 1.3278.53993.354.26997.6196.64492.7966 1.12486.1771.47994.2656 1.10986.2656 1.88976v7.19911h8.4976V4.72441c.3246-.05999.841-.13498 1.5491-.22497.7081-.11999 1.3872-.17998 2.0362-.17998.678 0 1.268.05999 1.77.17998.531.08999.974.26996 1.328.53993.354.26997.619.64492.796 1.12486.177.47994.266 1.10986.266 1.88976V31.811zM132.901 21.0574c0 1.8597-.28 3.5245-.841 4.9943-.561 1.4399-1.357 2.6547-2.39 3.6446-1.003.9899-2.213 1.7398-3.629 2.2497-1.417.5099-2.995.7649-4.736.7649-1.741 0-3.319-.27-4.736-.8099-1.416-.5399-2.64-1.3048-3.673-2.2947-1.003-1.0199-1.785-2.2497-2.346-3.6895-.56-1.4399-.841-3.0597-.841-4.8594 0-1.7698.281-3.3746.841-4.8144.561-1.4399 1.343-2.6547 2.346-3.6446 1.033-1.0198 2.257-1.7998 3.673-2.3397 1.417-.53992 2.995-.80988 4.736-.80988 1.741 0 3.319.28496 4.736.85488 1.416.5399 2.626 1.3198 3.629 2.3397 1.033.9899 1.829 2.2047 2.39 3.6446.561 1.4398.841 3.0296.841 4.7694zm-15.491 0c0 1.8297.34 3.2396 1.018 4.2294.708.9599 1.682 1.4399 2.921 1.4399 1.24 0 2.184-.495 2.833-1.4849.679-.9898 1.018-2.3847 1.018-4.1844 0-1.7998-.339-3.1796-1.018-4.1395-.679-.9899-1.638-1.4848-2.877-1.4848-1.239 0-2.198.4949-2.877 1.4848-.678.9599-1.018 2.3397-1.018 4.1395zM136.572 10.4387c.295-.09.752-.18 1.372-.27.649-.09 1.313-.135 1.991-.135.649 0 1.225.045 1.726.135.531.09.974.27 1.328.54.354.2699.62.6449.797 1.1248.206.45.31 1.0499.31 1.7998v9.6738c0 1.2298.295 2.1147.885 2.6547.59.5099 1.445.7649 2.567.7649.678 0 1.224-.06 1.637-.18.443-.12.782-.24 1.018-.36v-15.748c.295-.09.753-.18 1.372-.27.649-.09 1.313-.135 1.992-.135.649 0 1.224.045 1.726.135.531.09.974.27 1.328.54.354.2699.619.6449.796 1.1248.207.45.31 1.0499.31 1.7998v13.6783c0 1.4998-.619 2.6247-1.859 3.3746-1.032.6599-2.272 1.1548-3.717 1.4848-1.417.3599-2.966.5399-4.648.5399-1.593 0-3.068-.18-4.425-.5399-1.328-.36-2.479-.9149-3.453-1.6648-.973-.7499-1.726-1.7098-2.257-2.8797-.531-1.1998-.796-2.6396-.796-4.3194V10.4387zM180.478 25.4668c0 2.2797-.841 4.0645-2.523 5.3543-1.682 1.2899-4.161 1.9348-7.436 1.9348-1.239 0-2.39-.09-3.452-.27-1.062-.1799-1.977-.4499-2.744-.8099-.737-.3899-1.328-.8699-1.77-1.4398-.413-.5699-.62-1.2448-.62-2.0247 0-.7199.148-1.3199.443-1.7998.295-.5099.649-.9299 1.062-1.2598.856.4799 1.829.9148 2.921 1.3048 1.121.3599 2.405.5399 3.851.5399.914 0 1.608-.135 2.08-.4049.501-.27.752-.6299.752-1.0799 0-.4199-.177-.7499-.531-.9899-.354-.2399-.944-.4349-1.77-.5849l-1.328-.27c-2.567-.5099-4.485-1.3048-5.754-2.3847-1.239-1.1098-1.859-2.6846-1.859-4.7244 0-1.1098.236-2.1147.709-3.0146.472-.8999 1.136-1.6498 1.991-2.2497.856-.5999 1.874-1.0649 3.054-1.39484 1.21-.32996 2.538-.49494 3.983-.49494 1.092 0 2.11.08999 3.054.26997.974.14998 1.815.38991 2.523.71991.708.33 1.269.7649 1.682 1.3048.413.51.619 1.1249.619 1.8448 0 .6899-.132 1.2898-.398 1.7998-.236.4799-.546.8849-.929 1.2148-.236-.15-.591-.2999-1.063-.4499-.472-.18-.988-.33-1.549-.45-.56-.1499-1.136-.2699-1.726-.3599-.56-.09-1.077-.135-1.549-.135-.974 0-1.726.12-2.257.36-.531.2099-.797.5549-.797 1.0348 0 .33.148.6.443.8099.295.21.856.405 1.682.585l1.372.3149c2.832.6599 4.839 1.5748 6.019 2.7447 1.21 1.1398 1.815 2.6246 1.815 4.4544zM195.706 32.7109c-1.741 0-3.364-.24-4.869-.7199-1.475-.5099-2.773-1.2598-3.895-2.2497-1.091-.9899-1.962-2.2347-2.611-3.7346-.619-1.4998-.929-3.2545-.929-5.2643 0-1.9797.31-3.6745.929-5.0844.649-1.4398 1.49-2.6096 2.523-3.5095 1.033-.9299 2.213-1.6048 3.541-2.0248 1.327-.44991 2.685-.67488 4.071-.67488 1.564 0 2.981.23997 4.249.71988 1.299.48 2.405 1.1399 3.32 1.9798.944.8399 1.667 1.8448 2.168 3.0146.531 1.1699.797 2.4447.797 3.8245 0 1.0199-.28 1.7998-.841 2.3397-.561.54-1.342.8849-2.346 1.0349l-10.932 1.6648c.325.9899.989 1.7398 1.992 2.2497 1.003.48 2.154.7199 3.452.7199 1.21 0 2.346-.15 3.408-.4499 1.092-.33 1.977-.7049 2.656-1.1249.472.3.87.7199 1.195 1.2599.324.5399.487 1.1098.487 1.7098 0 1.3498-.62 2.3547-1.859 3.0146-.944.5099-2.007.8549-3.187 1.0348-1.18.18-2.287.27-3.319.27zm-1.24-17.6828c-.708 0-1.327.12-1.858.36-.502.2399-.915.5549-1.24.9449-.324.3599-.575.7799-.752 1.2598-.148.4499-.236.9149-.266 1.3948l7.569-1.2598c-.089-.5999-.413-1.1999-.974-1.7998-.561-.5999-1.387-.8999-2.479-.8999z" fill="#3077C6"/></svg>